<svg version="1.0"
    xmlns="http://www.w3.org/2000/svg" width="50px" height="50px" viewBox="0 0 512.000000 512.000000">

    <g transform="translate(0.000000,512.000000) scale(0.100000,-0.100000)" fill="#b3b3b3" stroke="none">
        <path d="M1030 4505 l0 -255 100 0 100 0 0 255 0 255 -100 0 -100 0 0 -255z"/>
        <path d="M1740 4145 l0 -615 105 0 105 0 -2 613 -3 612 -102 3 -103 3 0 -616z"/>
        <path d="M2460 4505 l0 -255 100 0 100 0 0 255 0 255 -100 0 -100 0 0 -255z"/>
        <path d="M3177 4753 c-4 -3 -7 -280 -7 -615 l0 -608 105 0 105 0 0 615 0 615
-98 0 c-54 0 -102 -3 -105 -7z"/>
        <path d="M3890 4505 l0 -255 100 0 100 0 0 255 0 255 -100 0 -100 0 0 -255z"/>
        <path d="M410 3940 l0 -100 565 0 565 0 0 100 0 100 -565 0 -565 0 0 -100z"/>
        <path d="M2150 3940 l0 -100 410 0 410 0 0 100 0 100 -410 0 -410 0 0 -100z"/>
        <path d="M3580 3940 l0 -100 565 0 565 0 0 100 0 100 -565 0 -565 0 0 -100z"/>
        <path d="M1030 3225 l0 -405 100 0 100 0 0 405 0 405 -100 0 -100 0 0 -405z"/>
        <path d="M2460 3225 l0 -405 100 0 100 0 0 405 0 405 -100 0 -100 0 0 -405z"/>
        <path d="M3890 3225 l0 -405 100 0 100 0 0 405 0 405 -100 0 -100 0 0 -405z"/>
        <path d="M414 3317 c-3 -8 -4 -54 -2 -103 l3 -89 203 -3 202 -2 0 105 0 105
-200 0 c-158 0 -202 -3 -206 -13z"/>
        <path d="M1440 3225 l0 -105 405 0 405 0 0 105 0 105 -405 0 -405 0 0 -105z"/>
        <path d="M2764 3317 c-3 -8 -4 -54 -2 -103 l3 -89 458 -3 457 -2 0 105 0 105
-455 0 c-370 0 -457 -3 -461 -13z"/>
        <path d="M4300 3225 l0 -105 203 2 202 3 0 100 0 100 -202 3 -203 2 0 -105z"/>
        <path d="M1740 2510 l0 -410 105 0 105 0 0 410 0 410 -105 0 -105 0 0 -410z"/>
        <path d="M3170 2460 l0 -460 105 0 105 0 0 460 0 460 -105 0 -105 0 0 -460z"/>
        <path d="M410 2510 l0 -100 565 0 565 0 0 100 0 100 -565 0 -565 0 0 -100z"/>
        <path d="M2150 2510 l0 -100 410 0 410 0 0 100 0 100 -410 0 -410 0 0 -100z"/>
        <path d="M3580 2510 l0 -100 460 0 460 0 0 100 0 100 -460 0 -460 0 0 -100z"/>
        <path d="M1030 1845 l0 -355 100 0 100 0 0 355 0 355 -100 0 -100 0 0 -355z"/>
        <path d="M2460 1845 l0 -355 100 0 100 0 0 355 0 355 -100 0 -100 0 0 -355z"/>
        <path d="M3890 1845 l0 -355 100 0 100 0 0 355 0 355 -100 0 -100 0 0 -355z"/>
        <path d="M417 1893 c-4 -3 -7 -51 -7 -105 l0 -98 205 0 205 0 0 105 0 105
-198 0 c-109 0 -202 -3 -205 -7z"/>
        <path d="M1440 1795 l0 -105 405 0 405 0 0 105 0 105 -405 0 -405 0 0 -105z"/>
        <path d="M2870 1795 l0 -105 405 0 405 0 0 105 0 105 -405 0 -405 0 0 -105z"/>
        <path d="M4300 1795 l0 -105 205 0 206 0 -3 103 -3 102 -202 3 -203 2 0 -105z"/>
        <path d="M1740 925 l0 -566 103 3 102 3 0 560 0 560 -102 3 -103 3 0 -566z"/>
        <path d="M3175 1478 c-3 -7 -4 -260 -3 -563 l3 -550 103 -3 102 -3 0 566 0
565 -100 0 c-71 0 -102 -4 -105 -12z"/>
        <path d="M410 1180 l0 -100 565 0 565 0 0 100 0 100 -565 0 -565 0 0 -100z"/>
        <path d="M2150 1180 l0 -100 410 0 410 0 0 100 0 100 -410 0 -410 0 0 -100z"/>
        <path d="M3580 1180 l0 -100 565 0 565 0 0 100 0 100 -565 0 -565 0 0 -100z"/>
        <path d="M1030 615 l0 -255 100 0 100 0 0 255 0 255 -100 0 -100 0 0 -255z"/>
        <path d="M2460 615 l0 -255 100 0 100 0 0 255 0 255 -100 0 -100 0 0 -255z"/>
        <path d="M3890 615 l0 -255 100 0 100 0 0 255 0 255 -100 0 -100 0 0 -255z"/>
    </g>
</svg>
