<?xml version="1.0" encoding="utf-8"?>
<!-- Generator: Adobe Illustrator 29.8.1, SVG Export Plug-In . SVG Version: 9.03 Build 0)  -->
<svg version="1.0" id="Layer_1" xmlns="http://www.w3.org/2000/svg" xmlns:xlink="http://www.w3.org/1999/xlink" x="0px" y="0px"
	 viewBox="0 0 50 50" style="enable-background:new 0 0 50 50;" xml:space="preserve">
<style type="text/css">
	.st0{opacity:0.25;fill:#672E17;}
</style>
<path class="st0" d="M4.98,6.01V8.5h0.98h0.98V6.01V3.52H5.95H4.98V6.01z"/>
<path class="st0" d="M11.91,9.53v6.01h1.03h1.03l-0.02-5.99l-0.03-5.98l-1-0.03l-1.01-0.03C11.91,3.51,11.91,9.53,11.91,9.53z"/>
<path class="st0" d="M24.02,6.01V8.5H25h0.98V6.01V3.52H25h-0.98V6.01z"/>
<path class="st0" d="M35.52,3.58c-0.04,0.03-0.07,2.73-0.07,6.01v5.94h1.03h1.03V9.52V3.51h-0.96C36.02,3.51,35.55,3.54,35.52,3.58z
	"/>
<path class="st0" d="M42.48,6v2.49h0.98h0.98V6V3.51h-0.98h-0.98V6z"/>
<path class="st0" d="M4.98,18.51v3.96h0.98h0.98v-3.96v-3.96H5.95H4.98V18.51z"/>
<path class="st0" d="M24.02,18.51v3.96H25h0.98v-3.96v-3.96H25h-0.98V18.51z"/>
<path class="st0" d="M42.48,18.5v3.96h0.98h0.98V18.5v-3.96h-0.98h-0.98V18.5z"/>
<path class="st0" d="M11.91,25.49v4h1.03h1.03v-4v-4h-1.03h-1.03V25.49z"/>
<path class="st0" d="M35.45,25.97v4.49h1.03h1.03v-4.49v-4.49h-1.03h-1.03V25.97z"/>
<path class="st0" d="M4.98,31.99v3.47h0.98h0.98v-3.47v-3.47H5.95H4.98V31.99z"/>
<path class="st0" d="M24.02,31.98v3.47H25h0.98v-3.47v-3.47H25h-0.98V31.98z"/>
<path class="st0" d="M42.48,31.98v3.47h0.98h0.98v-3.47v-3.47h-0.98h-0.98V31.98z"/>
<path class="st0" d="M11.94,40.97v5.53l1.01-0.03l1-0.03v-5.47V35.5l-1-0.03l-1.01-0.03V40.97z"/>
<path class="st0" d="M35.5,35.56c-0.03,0.07-0.04,2.54-0.03,5.5l0.03,5.37l1.01,0.03l1,0.03v-5.53v-5.52h-0.98
	C35.83,35.44,35.53,35.48,35.5,35.56z"/>
<path class="st0" d="M4.98,44v2.49h0.98h0.98V44v-2.49H5.95H4.98V44z"/>
<path class="st0" d="M24.02,43.99v2.49H25h0.98v-2.49V41.5H25h-0.98V43.99z"/>
<path class="st0" d="M42.48,43.99v2.49h0.98h0.98v-2.49V41.5h-0.98h-0.98V43.99z"/>
</svg>
