
<svg xmlns="http://www.w3.org/2000/svg" 
viewBox="0 0 300.000000 301.000000">
<g transform="translate(0.000000,301.000000) scale(0.100000,-0.100000)"
fill="#1fbcff" stroke="none">
<path d="M1385 2968 c-183 -16 -339 -57 -511 -138 -160 -75 -265 -150 -404
-290 -220 -220 -338 -437 -406 -743 -23 -105 -27 -145 -27 -292 0 -147 3 -187
27 -296 32 -153 69 -257 137 -386 174 -334 467 -589 814 -709 864 -300 1783
243 1935 1141 50 297 4 627 -123 882 -154 311 -386 543 -688 691 -225 109
-501 160 -754 140z m300 -63 c142 -20 244 -47 347 -91 280 -119 487 -289 655
-539 168 -249 258 -616 223 -910 -52 -451 -274 -812 -645 -1054 -225 -147
-479 -221 -763 -222 -668 -2 -1230 453 -1383 1120 -29 123 -36 375 -15 501 31
190 97 372 189 523 65 108 109 163 220 275 301 306 746 457 1172 397z"/>
<path d="M1265 2861 c-469 -85 -855 -394 -1037 -827 -106 -255 -133 -534 -78
-806 86 -422 356 -767 755 -966 248 -123 582 -165 864 -108 285 58 498 173
706 381 203 203 326 433 382 715 24 118 24 393 0 512 -54 271 -187 519 -382
713 -196 196 -436 325 -706 381 -120 24 -384 27 -504 5z m487 -25 c128 -25
217 -55 344 -116 385 -186 657 -541 741 -970 20 -102 23 -372 4 -470 -38 -204
-138 -436 -254 -590 -199 -264 -492 -446 -827 -517 -64 -14 -129 -18 -265 -18
-159 1 -193 4 -292 27 -411 98 -734 351 -921 724 -93 186 -136 377 -136 604 0
215 35 374 124 567 198 427 617 725 1095 777 74 8 309 -3 387 -18z"/>
<path d="M1522 2744 c-12 -8 -22 -24 -22 -34 0 -22 36 -50 63 -50 23 0 34 -29
16 -41 -20 -13 -27 -11 -46 11 -20 23 -43 26 -43 7 0 -24 35 -47 72 -47 72 0
79 63 11 95 -24 11 -43 25 -43 32 0 18 45 16 60 -2 16 -19 30 -19 30 -1 0 17
-38 46 -60 46 -9 0 -26 -7 -38 -16z"/>
<path d="M1366 2742 l-49 -3 7 -52 c3 -29 6 -64 6 -79 0 -21 5 -28 19 -28 17
0 19 5 14 35 -7 45 15 47 50 5 15 -17 35 -30 48 -30 22 0 21 2 -9 33 -29 30
-31 35 -17 47 20 17 19 57 -2 67 -10 5 -40 7 -67 5z m51 -37 c7 -20 3 -23 -35
-31 -27 -6 -32 -4 -32 13 0 11 3 23 7 26 12 13 54 7 60 -8z"/>
<path d="M1220 2714 c-19 -7 -43 -13 -52 -13 -10 -1 -18 -3 -18 -6 0 -8 39
-148 42 -151 7 -6 107 22 110 31 5 15 -38 18 -62 5 -25 -13 -25 -13 -34 17 -6
19 -2 22 34 28 26 4 40 12 40 22 0 11 -6 14 -22 9 -69 -19 -68 -19 -68 2 0 16
8 23 35 28 19 3 38 11 41 16 12 19 -11 24 -46 12z"/>
<path d="M1770 2707 c-83 -42 -54 -157 39 -157 43 0 45 2 55 42 5 23 2 27 -26
37 -39 14 -38 14 -38 -4 0 -8 7 -15 15 -15 16 0 21 -25 6 -34 -18 -12 -60 13
-67 39 -8 31 19 75 45 75 10 0 26 -9 36 -20 19 -21 45 -27 45 -10 0 13 -37 50
-49 50 -5 0 -15 2 -23 5 -7 3 -24 -1 -38 -8z"/>
<path d="M1929 2652 c-24 -66 -33 -88 -42 -99 -10 -13 -2 -33 14 -33 6 0 15
14 20 30 6 17 14 30 18 30 16 0 31 -26 31 -56 0 -27 13 -44 36 -44 8 0 4 42
-6 61 -9 16 -7 19 9 19 24 0 44 33 36 59 -3 10 -28 28 -56 39 l-50 21 -10 -27z
m66 -24 c44 -20 28 -50 -22 -40 -22 4 -31 30 -16 45 8 9 8 9 38 -5z"/>
<path d="M1070 2660 c0 -6 9 -29 21 -51 11 -23 18 -43 16 -45 -2 -3 -28 14
-57 37 -70 55 -81 43 -44 -50 16 -39 35 -71 42 -71 17 0 15 15 -8 60 -26 50
-12 51 46 3 63 -51 75 -35 39 56 -16 39 -34 71 -42 71 -7 0 -13 -5 -13 -10z"/>
<path d="M849 2551 c-35 -35 -36 -54 -6 -98 37 -55 96 -55 133 1 20 32 13 64
-22 99 -35 35 -68 34 -105 -2z m83 -18 c26 -31 30 -55 12 -74 -24 -26 -49 -24
-73 7 -25 32 -26 47 -5 68 20 21 47 20 66 -1z"/>
<path d="M2082 2557 c-12 -13 -25 -37 -28 -55 -5 -26 -1 -36 24 -62 17 -16 40
-30 52 -30 34 0 80 53 80 92 0 69 -82 104 -128 55z m86 -19 c18 -18 14 -52 -8
-76 -25 -26 -37 -27 -62 -5 -22 20 -23 42 -2 71 17 24 53 29 72 10z"/>
<path d="M752 2492 c-13 -4 -17 -32 -4 -32 4 0 25 -25 47 -55 40 -56 49 -63
60 -45 8 13 -88 137 -103 132z"/>
<path d="M1380 2491 c-145 -17 -323 -85 -451 -172 -82 -55 -205 -180 -262
-266 -151 -230 -200 -525 -132 -787 75 -288 306 -550 585 -665 165 -68 399
-89 580 -51 309 63 575 273 705 554 192 415 68 910 -298 1187 -202 153 -479
229 -727 200z m355 -55 c348 -98 595 -340 696 -681 21 -70 24 -101 24 -240 0
-185 -18 -270 -87 -410 -130 -263 -344 -437 -638 -517 -121 -33 -337 -33 -460
0 -377 102 -651 390 -716 751 -72 405 114 795 477 1005 57 32 193 83 274 101
84 20 349 14 430 -9z"/>
<path d="M1448 2337 c-8 -12 -18 -35 -22 -50 -8 -34 -30 -25 -23 9 2 15 0 24
-8 24 -17 0 -27 -42 -13 -51 9 -6 8 -12 -2 -23 -16 -21 -5 -33 15 -16 12 10
18 10 31 0 13 -11 19 -9 42 13 14 15 23 29 19 33 -3 4 -15 -4 -26 -17 -22 -26
-27 -15 -11 25 5 14 16 26 24 26 8 0 18 4 21 10 3 6 -1 7 -10 4 -11 -4 -14 -2
-9 9 9 25 -13 28 -28 4z"/>
<path d="M1547 2342 c-22 -24 -22 -58 1 -71 15 -9 15 -12 2 -21 -8 -5 -21 -8
-27 -5 -7 2 -13 -2 -13 -10 0 -25 37 -16 63 15 33 39 41 64 27 90 -13 25 -32
26 -53 2z m38 -12 c3 -5 1 -19 -5 -31 -15 -27 -35 -10 -25 20 7 22 20 27 30
11z"/>
<path d="M1648 2349 c-10 -5 -18 -17 -18 -26 0 -15 2 -15 18 0 10 10 22 17 25
17 15 0 6 -23 -15 -41 l-23 -18 24 -1 c24 0 24 0 5 -21 -10 -12 -26 -18 -37
-15 -11 3 -17 0 -14 -7 2 -7 13 -13 24 -15 26 -4 63 41 56 67 -3 10 0 22 7 26
8 5 6 12 -6 26 -20 22 -22 22 -46 8z"/>
<path d="M1316 2299 c-30 -24 -32 -55 -4 -73 14 -8 22 -7 35 8 17 17 17 18 -6
11 -20 -6 -23 -4 -18 10 4 9 7 21 7 26 0 5 7 9 15 9 8 0 15 4 15 9 0 20 -19
20 -44 0z"/>
<path d="M1245 2056 c-44 -14 -175 -86 -175 -97 0 -29 126 -44 167 -20 14 9 4
11 -42 9 -48 -2 -60 0 -60 12 0 13 90 71 105 67 3 0 20 3 39 7 44 11 61 -10
61 -73 0 -27 6 -51 17 -63 19 -21 10 -37 -11 -19 -10 9 -16 9 -21 1 -11 -18
13 -38 39 -33 13 3 27 0 30 -6 7 -11 86 -16 86 -5 0 18 -24 44 -41 44 -53 0
-86 53 -75 119 10 67 -29 86 -119 57z"/>
<path d="M1628 2060 c-14 -9 -18 -25 -18 -74 0 -74 -13 -96 -66 -111 -27 -7
-40 -17 -42 -30 -2 -17 3 -20 38 -21 29 -1 40 3 40 13 0 11 7 13 26 9 14 -4
32 -2 39 4 17 14 9 40 -12 40 -8 0 -11 5 -7 11 3 6 8 36 10 67 3 31 9 59 15
63 17 10 89 -7 120 -30 15 -11 34 -21 41 -21 7 0 22 -7 32 -15 18 -13 18 -15
2 -21 -10 -4 -41 -4 -69 -1 -50 5 -51 5 -22 -8 17 -8 41 -14 55 -14 41 -1 102
19 97 32 -6 19 -178 105 -222 112 -22 3 -48 1 -57 -5z"/>
<path d="M1447 2010 c-32 -26 -35 -62 -7 -90 42 -42 113 -17 113 39 0 59 -59
88 -106 51z m69 -42 c4 -15 1 -25 -12 -35 -16 -11 -21 -11 -36 5 -24 23 -14
52 17 52 15 0 26 -8 31 -22z"/>
<path d="M1011 1939 c-42 -17 -251 -59 -291 -59 -52 0 -58 -15 -18 -41 28 -17
44 -20 110 -16 42 3 84 10 95 16 14 9 9 10 -23 5 -26 -4 -44 -2 -48 5 -4 7
-14 8 -24 3 -15 -8 -28 -8 -49 -3 -5 2 33 11 82 22 175 38 197 41 208 30 10
-10 -1 -16 -25 -12 -4 0 -29 -11 -55 -25 -46 -24 -47 -25 -13 -18 19 3 40 10
45 14 6 4 34 14 64 21 l54 13 -32 13 c-17 8 -34 20 -37 28 -7 17 -10 17 -43 4z"/>
<path d="M1927 1936 c-4 -9 -18 -21 -31 -28 -24 -10 -22 -12 42 -35 83 -29
201 -53 265 -53 50 0 110 26 104 45 -2 5 -33 13 -68 17 -55 5 -217 41 -285 63
-15 5 -23 2 -27 -9z m121 -47 c92 -25 102 -27 125 -28 32 -2 7 -21 -27 -21
-49 0 -96 11 -90 21 3 5 -2 6 -11 3 -22 -9 -105 18 -105 33 0 18 18 16 108 -8z"/>
<path d="M1252 1912 c-36 -6 -15 -22 29 -22 22 0 38 4 35 9 -7 12 -36 17 -64
13z"/>
<path d="M1675 1906 c-19 -14 -17 -15 22 -16 23 0 45 5 48 10 3 6 0 10 -9 10
-8 0 -20 2 -28 5 -7 3 -22 -1 -33 -9z"/>
<path d="M1144 1881 c-42 -25 -195 -72 -261 -78 -60 -6 -69 -17 -22 -27 74
-15 157 0 279 50 86 34 97 44 74 61 -24 17 -33 16 -70 -6z m-64 -50 c0 -5 -9
-11 -21 -14 -16 -4 -18 -3 -8 9 13 16 29 19 29 5z"/>
<path d="M1764 1886 c-18 -14 -14 -17 56 -49 124 -58 225 -78 309 -61 43 9 39
24 -8 24 -47 0 -220 49 -278 78 -50 26 -53 26 -79 8z"/>
<path d="M1229 1840 c-32 -24 -170 -80 -198 -80 -32 0 -25 -17 9 -25 44 -10
85 1 180 48 47 22 87 42 89 44 2 1 -2 9 -9 18 -17 20 -39 19 -71 -5z"/>
<path d="M1688 1849 c-27 -15 -22 -22 30 -43 26 -11 59 -28 74 -38 43 -30 130
-45 165 -29 l28 14 -55 13 c-62 14 -142 48 -182 75 -30 22 -36 22 -60 8z"/>
<path d="M1314 1805 c-17 -13 -16 -14 16 -3 43 14 49 18 24 18 -11 0 -29 -7
-40 -15z"/>
<path d="M1611 1816 c2 -2 22 -9 44 -15 36 -9 38 -9 21 4 -17 13 -77 23 -65
11z"/>
<path d="M1367 1788 c-86 -18 -137 -66 -137 -127 1 -67 38 -106 129 -134 29
-9 72 -17 96 -17 64 0 146 -18 167 -37 34 -31 17 -78 -37 -97 -17 -6 -14 -10
20 -25 47 -21 61 -18 80 20 50 97 -29 190 -165 195 -174 7 -258 60 -213 136
18 31 23 33 74 34 78 0 81 2 77 26 -4 27 -39 37 -91 26z"/>
<path d="M1530 1780 c-12 -7 -13 -13 -4 -27 9 -14 23 -17 66 -15 61 3 83 -12
94 -65 7 -37 -20 -67 -69 -77 l-32 -7 50 -24 c47 -23 50 -23 68 -7 55 49 62
124 17 175 -42 48 -148 74 -190 47z"/>
<path d="M1210 1753 c-33 -15 -34 -17 -11 -21 15 -2 31 4 45 17 24 25 14 26
-34 4z"/>
<path d="M1476 1739 c-3 -17 -6 -58 -6 -90 0 -52 2 -59 20 -59 18 0 20 7 20
68 0 103 -20 150 -34 81z"/>
<path d="M1740 1750 c6 -12 21 -20 35 -20 33 0 31 6 -5 25 -38 20 -43 19 -30
-5z"/>
<path d="M1295 1480 c-22 -42 -12 -103 21 -129 32 -25 113 -48 193 -55 35 -3
70 -11 77 -17 19 -15 18 -65 -1 -73 -23 -8 -18 -21 12 -35 24 -11 29 -10 45 9
23 29 23 89 -1 117 -26 31 -61 44 -164 58 -87 13 -110 23 -128 56 -7 13 -3 25
16 48 28 32 26 35 -22 45 -29 7 -33 4 -48 -24z"/>
<path d="M1474 1476 c-3 -8 -4 -33 -2 -57 2 -32 8 -45 21 -47 14 -3 17 5 17
51 0 40 -4 56 -15 61 -9 3 -18 0 -21 -8z"/>
<path d="M1341 1282 c-26 -49 -3 -114 46 -133 14 -5 55 -14 90 -19 95 -13 126
-48 81 -90 -19 -18 -20 -22 -8 -30 8 -5 20 -10 27 -10 20 0 53 52 53 85 0 51
-47 81 -143 91 -92 9 -132 48 -91 88 19 20 18 22 -18 31 -20 5 -29 2 -37 -13z"/>
<path d="M1477 1273 c-4 -3 -7 -21 -7 -40 0 -26 4 -33 20 -33 17 0 20 7 20 40
0 38 -14 52 -33 33z"/>
<path d="M1370 1100 c-11 -27 -11 -37 3 -65 13 -27 26 -37 59 -46 95 -25 109
-31 118 -49 7 -13 4 -24 -10 -43 -26 -32 -25 -39 2 -35 33 4 53 51 38 88 -11
28 -22 34 -105 60 -54 17 -65 27 -65 60 0 16 6 30 13 33 15 5 9 12 -19 21 -17
5 -24 1 -34 -24z"/>
<path d="M1480 1064 c0 -59 24 -55 28 4 2 33 0 42 -12 42 -12 0 -16 -11 -16
-46z"/>
<path d="M1406 954 c-13 -35 -5 -63 25 -87 27 -21 28 -25 15 -36 -22 -18 -20
-54 4 -82 22 -27 25 -22 10 17 -8 20 -8 36 1 56 13 32 17 33 47 12 25 -17 30
-71 10 -93 -11 -11 -10 -13 2 -9 8 2 21 16 28 30 19 40 1 73 -56 102 -54 27
-65 44 -56 82 4 17 2 24 -9 24 -8 0 -18 -7 -21 -16z"/>
<path d="M1480 921 c0 -16 5 -33 10 -36 6 -4 10 5 10 19 0 14 0 29 1 33 0 4
-4 9 -10 11 -6 2 -11 -9 -11 -27z"/>
<path d="M1487 823 c-11 -10 -8 -161 3 -168 6 -4 10 27 10 84 0 91 -1 97 -13
84z"/>
<path d="M2238 2442 c-43 -53 -47 -79 -18 -110 27 -29 70 -28 94 1 10 12 30
35 45 50 21 23 23 29 11 37 -11 7 -26 -3 -58 -40 -37 -42 -46 -48 -63 -40 -28
16 -23 40 21 90 28 31 36 47 27 52 -18 11 -19 11 -59 -40z"/>
<path d="M660 2405 c-45 -46 -48 -68 -6 -46 21 12 27 9 69 -36 40 -42 47 -46
53 -29 6 14 -3 28 -34 58 -46 43 -49 50 -27 68 8 7 15 16 15 21 0 21 -29 6
-70 -36z"/>
<path d="M2389 2343 c-9 -10 -33 -33 -53 -52 -28 -24 -35 -36 -27 -44 8 -8 17
-5 33 11 l22 22 28 -27 c24 -23 32 -25 56 -17 38 13 41 52 7 93 -31 35 -44 38
-66 14z m51 -38 c16 -19 5 -47 -16 -43 -27 5 -42 37 -24 48 20 13 26 12 40 -5z"/>
<path d="M582 2327 c-8 -9 5 -26 49 -65 32 -29 63 -50 69 -47 12 8 13 35 1 35
-5 0 -31 20 -59 45 -38 34 -52 42 -60 32z"/>
<path d="M508 2240 c-30 -40 -35 -50 -23 -60 10 -9 15 -7 20 9 9 29 21 26 75
-19 54 -45 56 -46 63 -26 4 9 -14 29 -49 56 -49 37 -53 43 -39 56 14 15 12 35
-3 33 -4 0 -24 -22 -44 -49z"/>
<path d="M2511 2147 c-41 -21 -66 -63 -55 -93 23 -66 90 -79 140 -29 30 30 31
67 2 99 -29 31 -57 39 -87 23z m77 -61 c4 -20 -22 -53 -50 -62 -23 -7 -58 21
-58 48 0 10 15 27 32 38 28 17 35 18 53 6 11 -7 22 -21 23 -30z"/>
<path d="M453 2130 c-26 -11 -43 -40 -43 -73 0 -33 52 -77 91 -77 53 0 88 64
59 110 -13 21 -25 4 -25 -38 0 -31 -4 -38 -23 -40 -59 -9 -100 68 -47 88 14 5
25 16 25 25 0 17 -5 18 -37 5z"/>
<path d="M2645 2001 c-6 -5 -35 -18 -65 -29 -34 -12 -56 -26 -59 -37 -3 -18
-1 -18 61 2 12 3 18 -3 23 -26 4 -17 13 -31 21 -31 18 0 18 20 -1 47 -13 18
-13 22 0 33 19 16 32 6 40 -30 6 -28 23 -38 38 -24 5 6 -38 104 -46 104 -2 0
-7 -4 -12 -9z"/>
<path d="M340 1930 c-6 -11 9 -30 59 -73 53 -47 67 -55 70 -41 2 10 -3 22 -11
28 -21 16 2 69 33 76 12 3 24 11 27 18 6 20 -167 13 -178 -8z m100 -14 c0 -2
-3 -11 -6 -20 -8 -22 -27 -20 -49 4 -18 20 -17 20 18 20 21 0 37 -2 37 -4z"/>
<path d="M305 1790 c-3 -5 -12 -30 -20 -55 -10 -35 -10 -47 -2 -49 103 -29
141 -36 150 -27 15 15 -2 31 -34 31 -16 0 -29 4 -29 9 0 17 29 39 60 46 21 5
30 13 30 26 0 23 -3 23 -42 3 -28 -15 -31 -14 -45 5 -15 22 -57 29 -68 11z
m55 -39 c0 -33 -11 -51 -31 -51 -19 0 -25 23 -13 54 9 23 44 20 44 -3z"/>
<path d="M2647 1766 c-32 -6 -59 -14 -59 -19 -1 -23 14 -93 24 -104 14 -18 57
-17 64 2 4 10 15 12 34 9 38 -8 52 18 42 77 -9 51 -15 53 -105 35z m77 -32
c12 -31 6 -54 -13 -54 -34 0 -34 69 0 70 4 0 10 -7 13 -16z m-62 -24 c5 -36
-5 -55 -25 -47 -22 8 -28 56 -8 67 25 14 28 12 33 -20z"/>
<path d="M270 1611 c-5 -11 -10 -37 -10 -59 l0 -40 78 -4 c42 -3 80 -3 84 -1
17 9 -7 33 -33 33 -27 0 -29 3 -29 39 0 41 -11 51 -55 51 -14 0 -29 -9 -35
-19z m65 -41 c0 -18 -6 -26 -22 -28 -20 -3 -23 1 -23 28 0 27 3 31 22 28 17
-2 23 -10 23 -28z"/>
<path d="M2654 1595 c-78 -33 -46 -145 41 -145 25 0 44 8 60 25 67 66 -10 158
-101 120z m86 -39 c34 -42 -22 -92 -75 -68 -27 13 -34 49 -13 70 17 17 73 15
88 -2z"/>
<path d="M398 1425 c0 -6 -2 -28 -2 -50 l-1 -40 -62 -3 c-56 -3 -63 -5 -63
-23 0 -17 5 -20 28 -15 15 3 51 8 81 12 l53 6 -6 52 c-7 46 -24 85 -28 61z"/>
<path d="M2755 1417 c-3 -9 -7 -24 -10 -32 -3 -10 -13 -14 -27 -11 -13 3 -42
7 -65 10 -38 6 -43 4 -43 -14 0 -18 7 -20 65 -20 l65 0 0 -31 c0 -55 25 -26
32 37 6 56 -5 97 -17 61z"/>
<path d="M394 1268 c-16 -13 -46 -35 -66 -48 -65 -43 -46 -62 75 -74 56 -5 67
-4 67 9 0 8 -9 15 -20 15 -37 0 -54 63 -22 86 12 9 14 16 6 24 -8 8 -19 5 -40
-12z m-1 -68 c4 -17 0 -20 -24 -20 -33 0 -38 14 -11 29 24 15 29 14 35 -9z"/>
<path d="M2613 1275 c-39 -27 -41 -89 -4 -112 28 -18 49 -7 72 39 16 32 23 37
34 28 15 -12 7 -42 -15 -55 -13 -8 -13 -35 0 -35 6 0 19 9 30 20 27 27 26 75
-2 94 -27 19 -51 7 -68 -34 -16 -39 -50 -42 -50 -4 0 17 6 28 20 31 11 3 20
14 20 24 0 23 -9 24 -37 4z"/>
<path d="M2550 1103 c0 -12 17 -30 45 -47 70 -45 57 -53 -52 -30 -33 6 -40
-17 -10 -40 110 -90 109 -89 118 -75 10 15 -6 32 -61 62 -44 24 -32 31 30 18
85 -18 95 7 24 58 -53 37 -52 47 3 32 51 -15 73 -14 73 3 0 9 -18 16 -52 20
-29 4 -68 9 -85 12 -28 5 -33 3 -33 -13z"/>
<path d="M436 1102 c-13 -12 -5 -32 13 -32 49 0 28 -72 -24 -82 -39 -8 -58 9
-51 47 8 41 -10 56 -25 21 -17 -37 -3 -74 35 -92 30 -15 36 -15 68 0 51 24 66
57 46 100 -15 31 -49 52 -62 38z"/>
<path d="M468 930 c-60 -31 -88 -60 -58 -60 21 0 140 65 140 77 0 22 -15 19
-82 -17z"/>
<path d="M2485 957 c-4 -9 -2 -24 5 -32 18 -22 -12 -65 -45 -65 -14 0 -25 -6
-25 -13 0 -12 102 -37 150 -37 34 0 34 27 -2 70 -82 102 -76 97 -83 77z m63
-95 c14 -21 13 -22 -11 -22 -30 0 -40 11 -31 35 8 20 23 15 42 -13z"/>
<path d="M493 864 c-39 -30 -42 -61 -12 -110 11 -19 23 -34 27 -34 3 0 34 18
68 41 l63 41 -16 26 c-44 71 -76 79 -130 36z m93 -30 c13 -19 11 -22 -27 -47
-50 -33 -53 -33 -67 -2 -11 23 -9 29 15 51 31 29 60 28 79 -2z"/>
<path d="M2390 796 c0 -8 16 -24 35 -36 19 -12 35 -26 35 -31 0 -11 2 -11 -60
2 -38 8 -54 8 -65 -1 -12 -10 -4 -20 43 -59 68 -56 76 -61 79 -41 2 8 -13 25
-32 38 -40 25 -47 47 -12 39 12 -4 41 -9 65 -13 59 -9 56 11 -12 69 -57 49
-76 57 -76 33z"/>
<path d="M640 773 c0 -4 14 -22 32 -40 31 -32 31 -33 12 -48 -17 -13 -21 -12
-46 16 -15 18 -31 28 -38 24 -8 -5 -3 -16 15 -35 17 -18 25 -35 22 -44 -9 -24
-23 -19 -47 14 -19 27 -50 41 -50 23 0 -5 18 -28 40 -52 l38 -44 61 53 60 53
-36 44 c-31 38 -63 56 -63 36z"/>
<path d="M2295 691 c-3 -6 -4 -19 -1 -29 4 -12 -3 -27 -18 -41 -19 -18 -28
-21 -44 -12 -15 8 -23 7 -31 -3 -9 -10 5 -21 63 -49 41 -21 79 -37 84 -37 23
0 22 24 -4 93 -31 81 -39 93 -49 78z m29 -107 c9 -34 6 -36 -23 -15 -13 10
-21 23 -17 30 13 20 34 12 40 -15z"/>
<path d="M710 602 c-56 -72 -55 -68 -30 -82 18 -10 26 -7 56 19 49 44 58 38
30 -18 -24 -47 -24 -49 -7 -65 17 -15 20 -13 62 36 24 29 47 55 51 56 5 2 8
10 8 18 0 28 -27 13 -59 -32 -42 -60 -51 -50 -17 17 37 70 23 83 -40 35 -59
-45 -70 -38 -21 12 20 21 37 43 37 50 0 27 -27 9 -70 -46z"/>
<path d="M1436 379 c-41 -49 -29 -103 30 -135 33 -18 35 -18 68 0 87 47 61
166 -35 166 -29 0 -43 -7 -63 -31z m104 -15 c18 -20 17 -74 -1 -85 -22 -14
-61 -10 -81 8 -18 17 -25 53 -9 53 5 0 11 9 14 20 6 25 58 28 77 4z"/>
</g>
</svg>
